<svg width="225" height="225" viewBox="0 0 225 225" fill="none" xmlns="http://www.w3.org/2000/svg">
    <circle cx="112.5" cy="112.5" r="112.5" fill="#CCFF60" />
    <path
        d="M107.732 184.036L110.464 184.492L98.9709 204.694L96.2808 204.245L91.9699 181.405L94.702 181.861L98.11 201.05L98.2781 201.079L107.732 184.036ZM105.32 192.274L94.308 190.436L94.6938 188.124L105.706 189.962L105.32 192.274Z"
        fill="black" />
    <path
        d="M74.5897 197.534L77.6345 178.299L77.4097 178.177L62.9716 191.247L60.5356 189.929L77.9657 174.553L80.3642 175.851L77.0257 198.853L74.5897 197.534Z"
        fill="black" />
    <path
        d="M65.2965 165.575L67.1725 167.613L45.6944 176.496L43.8473 174.489L54.4735 153.818L56.3495 155.856L47.2526 173.092L47.3681 173.217L65.2965 165.575ZM58.3335 170.595L50.7718 162.38L52.4961 160.793L60.0578 169.007L58.3335 170.595Z"
        fill="black" />
    <path d="M27.8732 149.081L47.8537 140.317L48.915 142.736L28.9345 151.5L27.8732 149.081Z" fill="black" />
    <path
        d="M43.0814 124.14L21.3378 125.942L21.1196 123.309L40.5275 121.701L39.69 111.594L42.0257 111.4L43.0814 124.14Z"
        fill="black" />
    <path
        d="M43.0768 101.484L42.3968 104.169L23.213 91.0466L23.8825 88.4028L46.9997 85.9926L46.3197 88.6777L26.9147 90.4894L26.8729 90.6546L43.0768 101.484ZM35.0659 98.4001L37.8067 87.5769L40.0788 88.1523L37.338 98.9754L35.0659 98.4001Z"
        fill="black" />
    <path
        d="M50.0719 80.1222L31.8065 68.1887L35.9785 61.803C36.8098 60.5306 37.7154 59.6249 38.6954 59.0859C39.6694 58.543 40.6571 58.3102 41.6585 58.3876C42.654 58.4611 43.5977 58.7892 44.4895 59.3719C45.2744 59.8846 45.8312 60.4478 46.1599 61.0613C46.4926 61.6689 46.6599 62.2957 46.662 62.9418C46.6679 63.582 46.5713 64.2103 46.3722 64.8268L46.5506 64.9433C46.9514 64.4077 47.5147 63.974 48.2405 63.6422C48.9663 63.3105 49.7864 63.1718 50.701 63.2264C51.6155 63.2809 52.5544 63.6228 53.5176 64.2521C54.4332 64.8504 55.1208 65.5965 55.5802 66.4905C56.0396 67.3845 56.1901 68.4203 56.0316 69.5978C55.8731 70.7753 55.3239 72.0835 54.3838 73.5223L50.0719 80.1222ZM49.5549 76.6284L52.4217 72.2404C53.3656 70.7956 53.7563 69.5874 53.5936 68.6158C53.4288 67.6343 52.9451 66.8814 52.1425 66.357C51.5241 65.953 50.8504 65.7376 50.1212 65.7109C49.3862 65.6803 48.6708 65.8534 47.9749 66.2302C47.2732 66.6031 46.662 67.1879 46.1415 67.9847L43.2048 72.4797L49.5549 76.6284ZM41.2783 71.2211L43.9587 67.1185C44.3938 66.4526 44.6553 65.7666 44.7433 65.0605C44.8352 64.3486 44.7462 63.6796 44.4764 63.0537C44.2105 62.4219 43.7565 61.8962 43.1144 61.4767C42.3117 60.9522 41.4483 60.7869 40.5243 60.9807C39.5943 61.1705 38.7331 61.8719 37.9406 63.0849L35.2136 67.2588L41.2783 71.2211Z"
        fill="black" />
    <path
        d="M65.6136 60.2235L52.2126 43.0059L54.2975 41.3832L66.259 56.7512L74.2625 50.5218L75.702 52.3714L65.6136 60.2235Z"
        fill="black" />
    <path
        d="M84.3678 47.9L77.2834 27.264L89.7376 22.9885L90.4986 25.2052L80.5434 28.6229L82.9371 35.5956L92.2475 32.3993L93.0085 34.6161L83.6981 37.8123L86.1057 44.8254L96.2222 41.3524L96.9832 43.5691L84.3678 47.9Z"
        fill="black" />
    <path d="M118.178 31.4744V33.8182H108.633V31.4744L118.178 31.4744Z" fill="black" />
    <path
        d="M130.628 43.8463L137.712 23.2103L150.085 27.4581L149.324 29.6749L139.45 26.2849L137.056 33.2576L146.004 36.3293L145.243 38.5461L136.295 35.4744L133.126 44.7041L130.628 43.8463Z"
        fill="black" />
    <path
        d="M171.702 54.5813C170.288 56.3972 168.739 57.7114 167.054 58.5237C165.368 59.336 163.675 59.6559 161.973 59.4834C160.271 59.3109 158.686 58.6532 157.218 57.5102C155.749 56.3673 154.723 54.9922 154.138 53.3849C153.553 51.7776 153.447 50.0574 153.821 48.2243C154.195 46.3912 155.088 44.5667 156.502 42.7507C157.915 40.9348 159.464 39.6207 161.15 38.8084C162.835 37.9961 164.528 37.6762 166.23 37.8487C167.932 38.0212 169.517 38.6789 170.985 39.8218C172.454 40.9648 173.48 42.3399 174.065 43.9472C174.65 45.5545 174.756 47.2747 174.382 49.1078C174.009 50.9409 173.115 52.7654 171.702 54.5813ZM169.684 53.0109C170.844 51.52 171.574 50.0677 171.874 48.6538C172.179 47.2442 172.113 45.9467 171.677 44.7611C171.246 43.5799 170.51 42.5837 169.467 41.7723C168.425 40.9609 167.275 40.4892 166.019 40.3574C164.768 40.2299 163.494 40.4848 162.197 41.1222C160.906 41.764 159.68 42.8303 158.519 44.3212C157.359 45.812 156.626 47.2622 156.321 48.6718C156.022 50.0857 156.087 51.3832 156.518 52.5644C156.954 53.7499 157.694 54.7484 158.736 55.5598C159.778 56.3712 160.925 56.8406 162.176 56.9681C163.432 57.1 164.706 56.8451 165.998 56.2033C167.295 55.5659 168.524 54.5017 169.684 53.0109Z"
        fill="black" />
    <path
        d="M169.038 68.3462L187.303 56.4128L191.335 62.5845C192.268 64.0115 192.789 65.3421 192.9 66.5763C193.016 67.8066 192.796 68.9175 192.24 69.9091C191.683 70.9007 190.866 71.7481 189.79 72.4512C188.714 73.1543 187.616 73.5578 186.496 73.6616C185.376 73.7655 184.281 73.5179 183.211 72.919C182.147 72.3162 181.153 71.3072 180.228 69.8921L176.965 64.8977L178.963 63.5924L182.179 68.5155C182.816 69.4907 183.472 70.1823 184.146 70.5904C184.823 71.0045 185.511 71.1743 186.209 71.1001C186.917 71.0278 187.637 70.7528 188.368 70.275C189.1 69.7972 189.649 69.2429 190.018 68.612C190.386 67.9811 190.523 67.2683 190.428 66.4735C190.338 65.6749 189.972 64.7821 189.327 63.7951L186.786 59.9065L170.483 70.558L169.038 68.3462ZM182.86 71.5831L177.592 81.4388L175.913 78.8702L181.229 69.0859L182.86 71.5831Z"
        fill="black" />
    <path d="M193.605 97.6172L191.333 98.1926L188.99 88.9392L191.262 88.3638L193.605 97.6172Z" fill="black" />
    <path
        d="M184.817 110.929L206.56 112.731L206.342 115.364L196.659 114.561L195.699 126.155L205.381 126.957L205.163 129.59L183.42 127.789L183.638 125.156L193.363 125.962L194.324 114.368L184.598 113.562L184.817 110.929Z"
        fill="black" />
    <path d="M197.874 151.488L177.894 142.724L178.955 140.305L198.935 149.069L197.874 151.488Z" fill="black" />
    <path
        d="M170.347 155.972L186.399 170.749L181.406 176.173C180.252 177.427 179.09 178.259 177.921 178.669C176.757 179.084 175.626 179.144 174.528 178.847C173.43 178.551 172.408 177.967 171.462 177.097C170.516 176.226 169.856 175.261 169.48 174.201C169.104 173.14 169.076 172.018 169.393 170.834C169.717 169.654 170.451 168.443 171.595 167.199L175.636 162.81L177.392 164.426L173.409 168.753C172.62 169.61 172.11 170.415 171.88 171.168C171.645 171.927 171.649 172.636 171.893 173.294C172.137 173.963 172.58 174.593 173.223 175.184C173.865 175.776 174.538 176.173 175.24 176.375C175.942 176.577 176.666 176.535 177.413 176.247C178.166 175.965 178.941 175.39 179.74 174.523L182.885 171.105L168.558 157.916L170.347 155.972ZM170.602 170.166L159.755 167.478L161.833 165.221L172.623 167.971L170.602 170.166Z"
        fill="black" />
    <path
        d="M152.755 172.433L163.139 191.622L151.558 197.889L150.443 195.828L159.7 190.818L156.191 184.334L147.534 189.019L146.418 186.958L155.076 182.273L151.547 175.752L142.14 180.843L141.024 178.782L152.755 172.433Z"
        fill="black" />
    <path d="M122.109 194.2L121.723 191.888L131.138 190.317L131.524 192.629L122.109 194.2Z" fill="black" />
</svg>