<svg width="33" height="33" viewBox="0 0 33 33" fill="none" xmlns="http://www.w3.org/2000/svg">
    <path
        d="M16.734 13.9779L17.1929 14.0637L19.9076 7.70409L17.6293 14.2328L18.0262 14.4785L22.8549 9.52899L18.372 14.7938L18.6534 15.1664L24.944 12.2954L18.862 15.5853L18.9897 16.0343L25.8927 15.6296L19.0329 16.5003L18.9898 16.9652L25.5728 19.0814L18.8618 17.4152L18.6537 17.8332L24.0276 22.1846L18.3717 18.2066L18.0266 18.5211L21.4658 24.52L17.6288 18.7675L17.1934 18.9361L18.2333 25.7723L16.7334 19.0221H16.2666L14.7667 25.7723L15.8066 18.9361L15.3712 18.7675L11.5342 24.52L14.9734 18.5211L14.6283 18.2066L8.97237 22.1846L14.3463 17.8332L14.1382 17.4152L7.42717 19.0814L14.0102 16.9652L13.9671 16.5003L7.1073 15.6296L14.0103 16.0343L14.138 15.5853L8.05599 12.2954L14.3466 15.1664L14.628 14.7938L10.1451 9.52899L14.9738 14.4785L15.3707 14.2328L13.0924 7.70406L15.8071 14.0637L16.266 13.9779L16.5 7.06706L16.734 13.9779Z"
        stroke="black" stroke-width="0.478261" />
</svg>