<svg width="20" height="20" viewBox="0 0 20 20" fill="none" xmlns="http://www.w3.org/2000/svg">
<path d="M13.1798 11.309C12.4618 11.309 11.8798 12.116 11.8798 13.108C11.8798 14.102 12.4618 14.909 13.1798 14.909C13.8978 14.909 14.4798 14.102 14.4798 13.108C14.4788 12.116 13.8978 11.309 13.1798 11.309ZM17.7058 6.626C17.8548 6.261 17.8608 4.187 17.0708 2.2C17.0708 2.2 15.2598 2.399 12.5198 4.28C11.9448 4.12 10.9718 4.042 10.0008 4.042C9.0278 4.042 8.0558 4.12 7.4808 4.28C4.7398 2.399 2.9288 2.2 2.9288 2.2C2.1398 4.187 2.1478 6.261 2.2948 6.626C1.3668 7.634 0.799805 8.845 0.799805 10.497C0.799805 17.683 6.7628 17.798 8.2668 17.798L10.0008 17.8L11.7328 17.798C13.2388 17.798 19.1998 17.683 19.1998 10.497C19.1998 8.845 18.6338 7.634 17.7058 6.626ZM10.0278 16.915H9.9718C6.2008 16.915 3.2628 16.466 3.2628 12.8C3.2628 11.921 3.5728 11.107 4.3098 10.431C5.5368 9.304 7.6148 9.9 9.9718 9.9H10.0278C12.3848 9.9 14.4638 9.304 15.6918 10.431C16.4268 11.107 16.7368 11.921 16.7368 12.8C16.7368 16.466 13.7998 16.915 10.0278 16.915ZM6.8208 11.309C6.1028 11.309 5.5208 12.116 5.5208 13.108C5.5208 14.102 6.1028 14.909 6.8208 14.909C7.5398 14.909 8.1218 14.102 8.1218 13.108C8.1218 12.116 7.5398 11.309 6.8208 11.309Z" fill="white"/>
</svg>
